<svg xmlns="http://www.w3.org/2000/svg" xmlns:svg="http://www.w3.org/2000/svg" xmlns:xlink="http://www.w3.org/1999/xlink" version="1.0" height="700pt" width="1014pt" viewBox="295 47 1022 706" ><defs><style type="text/css">
            @font-face {
                font-family: 'lt_regular';
                src: url('https://app.creately.com/diagram/assets/fonts/lato/lt-regular-webfont.woff2') format('woff2'),
                    url('https://app.creately.com/diagram/assets/fonts/lato/lt-regular-webfont.woff') format('woff');
                font-weight: normal;
                font-style: normal;
            }
            @font-face {
                font-family: 'noto_regular';
                src: url('https://app.creately.com/diagram/assets/fonts/noto/noto-regular.woff') format('woff'),
                     url('https://app.creately.com/diagram/assets/fonts/noto/noto-regular.woff2') format('woff2');
                font-weight: normal;
                font-style: normal;
            }
        p {
            margin: 0;
        }
        </style></defs><defs><style>
            span{ display: inline-block; }
        </style></defs><g id="ctMBknRzFyM"><g transform="translate(300 50)"><rect x="0" y="0" width="200" height="250" rx="2" ry="2" fill="rgb(78,164,166)" stroke="#2d6667" stroke-width="2" stroke-linecap="round" stroke-linejoin="round" stroke-dasharray="0 0"/><path d="M 0,30 L 200,30 M 0,140 L 200,140" fill="rgb(78,164,166)" stroke="#2d6667" stroke-width="2" stroke-linecap="round" stroke-linejoin="round" stroke-dasharray="0 0"/></g><g transform="translate(310, 55) rotate(0, 0, 0)" width="32" height="20"><text text-decoration="none" x="0" fill="#ffffff" font-size="11pt" font-family="lt_regular"  y="16">Bank</text><text text-decoration="none" x="33" fill="#4b4b4b" font-size="10pt" font-family="noto_regular"  y="16"></text></g><g transform="translate(310, 85) rotate(0, 0, 0)" width="182" height="100"><text text-decoration="none" x="0" fill="#ffffff" font-size="11pt" font-family="lt_regular"  y="16">-Name:&#160;</text><text text-decoration="none" x="52" fill="#ffffff" font-size="11pt" font-family="lt_regular"  y="16">string</text><text text-decoration="none" x="88" fill="#ffffff" font-size="11pt" font-family="lt_regular"  y="16"></text><text text-decoration="none" x="0" fill="#ffffff" font-size="11pt" font-family="lt_regular"  y="36">-Branches:&#160;</text><text text-decoration="none" x="73" fill="#ffffff" font-size="11pt" font-family="lt_regular"  y="36">string</text><text text-decoration="none" x="109" fill="#ffffff" font-size="11pt" font-family="lt_regular"  y="36"></text><text text-decoration="none" x="0" fill="#ffffff" font-size="11pt" font-family="lt_regular"  y="56">-Customer&#160;</text><text text-decoration="none" x="73" fill="#ffffff" font-size="11pt" font-family="lt_regular"  y="56">detail:&#160;</text><text text-decoration="none" x="117" fill="#ffffff" font-size="11pt" font-family="lt_regular"  y="56">string</text><text text-decoration="none" x="153" fill="#ffffff" font-size="11pt" font-family="lt_regular"  y="56"></text><text text-decoration="none" x="0" fill="#ffffff" font-size="11pt" font-family="lt_regular"  y="76">-loan&#160;</text><text text-decoration="none" x="38" fill="#ffffff" font-size="11pt" font-family="lt_regular"  y="76">detail:&#160;</text><text text-decoration="none" x="82" fill="#ffffff" font-size="11pt" font-family="lt_regular"  y="76">string</text><text text-decoration="none" x="118" fill="#ffffff" font-size="11pt" font-family="lt_regular"  y="76"></text><text text-decoration="none" x="0" fill="#ffffff" font-size="11pt" font-family="lt_regular"  y="96">-rules&#160;</text><text text-decoration="none" x="41" fill="#ffffff" font-size="11pt" font-family="lt_regular"  y="96">and&#160;</text><text text-decoration="none" x="68" fill="#ffffff" font-size="11pt" font-family="lt_regular"  y="96">regulations:&#160;</text><text text-decoration="none" x="0" fill="#ffffff" font-size="11pt" font-family="lt_regular"  y="116">string</text><text text-decoration="none" x="36" fill="#4b4b4b" font-size="10pt" font-family="noto_regular"  y="116"></text></g><g transform="translate(310, 195) rotate(0, 0, 0)" width="113" height="100"><text text-decoration="none" x="0" fill="#ffffff" font-size="11pt" font-family="lt_regular"  y="16">+create&#160;</text><text text-decoration="none" x="0" fill="#ffffff" font-size="11pt" font-family="lt_regular"  y="36">Account()</text><text text-decoration="none" x="62" fill="#ffffff" font-size="11pt" font-family="lt_regular"  y="36"></text><text text-decoration="none" x="0" fill="#ffffff" font-size="11pt" font-family="lt_regular"  y="56">+location()</text><text text-decoration="none" x="70" fill="#ffffff" font-size="11pt" font-family="lt_regular"  y="56"></text><text text-decoration="none" x="0" fill="#ffffff" font-size="11pt" font-family="lt_regular"  y="76">+provide&#160;</text><text text-decoration="none" x="63" fill="#ffffff" font-size="11pt" font-family="lt_regular"  y="76">Laon()</text><text text-decoration="none" x="103" fill="#ffffff" font-size="11pt" font-family="lt_regular"  y="76"></text><text text-decoration="none" x="0" fill="#ffffff" font-size="11pt" font-family="lt_regular"  y="96">+updateDetails()</text><text text-decoration="none" x="106" fill="#ffffff" font-size="11pt" font-family="lt_regular"  y="96"></text><text text-decoration="none" x="0" fill="#ffffff" font-size="11pt" font-family="lt_regular"  y="116">+close&#160;</text><text text-decoration="none" x="47" fill="#ffffff" font-size="11pt" font-family="lt_regular"  y="116">Account()</text><text text-decoration="none" x="109" fill="#4b4b4b" font-size="10pt" font-family="noto_regular"  y="116"></text></g></g><g id="ezHlU8Lb51T"><g transform="translate(650 50)"><rect x="0" y="0" width="150" height="200" rx="2" ry="2" fill="rgb(78,164,166)" stroke="#2d6667" stroke-width="2" stroke-linecap="round" stroke-linejoin="round" stroke-dasharray="0 0"/><path d="M 0,30 L 150,30 M 0,120 L 150,120" fill="rgb(78,164,166)" stroke="#2d6667" stroke-width="2" stroke-linecap="round" stroke-linejoin="round" stroke-dasharray="0 0"/></g><g transform="translate(660, 55) rotate(0, 0, 0)" width="38" height="20"><text text-decoration="none" x="0" fill="#ffffff" font-size="11pt" font-family="lt_regular"  y="16">Client</text><text text-decoration="none" x="39" fill="#4b4b4b" font-size="10pt" font-family="noto_regular"  y="16"></text></g><g transform="translate(660, 85) rotate(0, 0, 0)" width="101" height="80"><text text-decoration="none" x="0" fill="#ffffff" font-size="11pt" font-family="lt_regular"  y="16">-Name:&#160;</text><text text-decoration="none" x="52" fill="#ffffff" font-size="11pt" font-family="lt_regular"  y="16">string</text><text text-decoration="none" x="88" fill="#ffffff" font-size="11pt" font-family="lt_regular"  y="16"></text><text text-decoration="none" x="0" fill="#ffffff" font-size="11pt" font-family="lt_regular"  y="36">-PhoneNo:&#160;</text><text text-decoration="none" x="76" fill="#ffffff" font-size="11pt" font-family="lt_regular"  y="36">int</text><text text-decoration="none" x="93" fill="#ffffff" font-size="11pt" font-family="lt_regular"  y="36"></text><text text-decoration="none" x="0" fill="#ffffff" font-size="11pt" font-family="lt_regular"  y="56">-Address:&#160;</text><text text-decoration="none" x="65" fill="#ffffff" font-size="11pt" font-family="lt_regular"  y="56">string</text><text text-decoration="none" x="101" fill="#ffffff" font-size="11pt" font-family="lt_regular"  y="56"></text><text text-decoration="none" x="0" fill="#ffffff" font-size="11pt" font-family="lt_regular"  y="76">Account&#160;</text><text text-decoration="none" x="58" fill="#ffffff" font-size="11pt" font-family="lt_regular"  y="76">no:int</text><text text-decoration="none" x="96" fill="#4b4b4b" font-size="10pt" font-family="noto_regular"  y="76"></text></g><g transform="translate(660, 175) rotate(0, 0, 0)" width="103" height="60"><text text-decoration="none" x="0" fill="#ffffff" font-size="11pt" font-family="lt_regular"  y="16">+create&#160;</text><text text-decoration="none" x="0" fill="#ffffff" font-size="11pt" font-family="lt_regular"  y="36">accout()</text><text text-decoration="none" x="51" fill="#ffffff" font-size="11pt" font-family="lt_regular"  y="36"></text><text text-decoration="none" x="0" fill="#ffffff" font-size="11pt" font-family="lt_regular"  y="56">+deposit()</text><text text-decoration="none" x="65" fill="#ffffff" font-size="11pt" font-family="lt_regular"  y="56"></text><text text-decoration="none" x="0" fill="#ffffff" font-size="11pt" font-family="lt_regular"  y="76">+withdraw()</text><text text-decoration="none" x="78" fill="#4b4b4b" font-size="10pt" font-family="noto_regular"  y="76"></text></g></g><g id="llEqZsyrz5e"><g transform="translate(950 50)"><rect x="0" y="0" width="150" height="150" rx="2" ry="2" fill="rgb(78,164,166)" stroke="#2d6667" stroke-width="2" stroke-linecap="round" stroke-linejoin="round" stroke-dasharray="0 0"/><path d="M 0,30 L 150,30 M 0,100 L 150,100" fill="rgb(78,164,166)" stroke="#2d6667" stroke-width="2" stroke-linecap="round" stroke-linejoin="round" stroke-dasharray="0 0"/></g><g transform="translate(960, 55) rotate(0, 0, 0)" width="53" height="20"><text text-decoration="none" x="0" fill="#ffffff" font-size="11pt" font-family="lt_regular"  y="16">Account</text><text text-decoration="none" x="54" fill="#4b4b4b" font-size="10pt" font-family="noto_regular"  y="16"></text></g><g transform="translate(960, 85) rotate(0, 0, 0)" width="107" height="60"><text text-decoration="none" x="0" fill="#ffffff" font-size="11pt" font-family="lt_regular"  y="16">-Name:&#160;</text><text text-decoration="none" x="52" fill="#ffffff" font-size="11pt" font-family="lt_regular"  y="16">string</text><text text-decoration="none" x="88" fill="#ffffff" font-size="11pt" font-family="lt_regular"  y="16"></text><text text-decoration="none" x="0" fill="#ffffff" font-size="11pt" font-family="lt_regular"  y="36">-Accountno:&#160;</text><text text-decoration="none" x="85" fill="#ffffff" font-size="11pt" font-family="lt_regular"  y="36">int</text><text text-decoration="none" x="102" fill="#ffffff" font-size="11pt" font-family="lt_regular"  y="36"></text><text text-decoration="none" x="0" fill="#ffffff" font-size="11pt" font-family="lt_regular"  y="56">-Balance:&#160;</text><text text-decoration="none" x="0" fill="#ffffff" font-size="11pt" font-family="lt_regular"  y="76">double</text><text text-decoration="none" x="45" fill="#4b4b4b" font-size="10pt" font-family="noto_regular"  y="76"></text></g><g transform="translate(960, 155) rotate(0, 0, 0)" width="114" height="40"><text text-decoration="none" x="0" fill="#ffffff" font-size="11pt" font-family="lt_regular"  y="16">+updateAccount()</text><text text-decoration="none" x="0" fill="#ffffff" font-size="11pt" font-family="lt_regular"  y="36"></text><text text-decoration="none" x="0" fill="#ffffff" font-size="11pt" font-family="lt_regular"  y="56">+CheckBalance()</text><text text-decoration="none" x="109" fill="#4b4b4b" font-size="10pt" font-family="noto_regular"  y="56"></text></g></g><g id="JBwnTOWvsHN"><mask id="d0041" x="486" y="99" width="178" height="115" maskUnits="userSpaceOnUse"><rect x="486" y="99" width="178" height="115" fill="white" /><rect x="513.9993333555548" y="99.8000044442963" width="32" height="26" fill="black" /><rect x="604" y="187" width="32" height="26" fill="black" /></mask><g mask="url(#d0041)"><path d="M 500,113 L 565.000222214815,112.56666518523457 Q 575,112.5 575,122.5 L 575,156 L 575,190 Q 575,200 585,200 L 650,200" fill="none" stroke="#9A9A9A" stroke-width="2" stroke-linecap="round" stroke-linejoin="round"/></g><g transform="translate(516.9993333555548, 102.8000044442963)" width="26" height="20"><text text-decoration="none" x="0" fill="#4b4b4b" font-size="11pt" font-family="lt_regular"  y="16">1:M</text><text text-decoration="none" x="27" fill="#4b4b4b" font-size="10pt" font-family="noto_regular"  y="16"></text></g><g transform="translate(607, 190)" width="26" height="20"><text text-decoration="none" x="0" fill="#4b4b4b" font-size="11pt" font-family="lt_regular"  y="16">1:M</text><text text-decoration="none" x="27" fill="#4b4b4b" font-size="10pt" font-family="noto_regular"  y="16"></text></g></g><g id="ci3IyzE2bXU"><mask id="7317e" x="786" y="86" width="178" height="91" maskUnits="userSpaceOnUse"><rect x="786" y="86" width="178" height="91" fill="white" /><rect x="815" y="87" width="30" height="26" fill="black" /><rect x="913.0006666444452" y="149.8000044442963" width="14" height="26" fill="black" /></mask><g mask="url(#7317e)"><path d="M 800,100 L 865,100 Q 875,100 875,110 L 875,131 L 875,152.5 Q 875,162.5 884.999777785185,162.56666518523457 L 950,163" fill="none" stroke="#9A9A9A" stroke-width="2" stroke-linecap="round" stroke-linejoin="round"/></g><g transform="translate(818, 90)" width="24" height="20"><text text-decoration="none" x="0" fill="#4b4b4b" font-size="11pt" font-family="lt_regular"  y="16">0..1</text><text text-decoration="none" x="26" fill="#4b4b4b" font-size="10pt" font-family="noto_regular"  y="16"></text></g><g transform="translate(916.0006666444452, 152.8000044442963)" width="8" height="20"><text text-decoration="none" x="0" fill="#4b4b4b" font-size="11pt" font-family="lt_regular"  y="16">1</text><text text-decoration="none" x="9" fill="#4b4b4b" font-size="10pt" font-family="noto_regular"  y="16"></text></g></g><g id="6IsrHwZ4SQ6"><g transform="translate(650 400)"><rect x="0" y="0" width="150" height="150" rx="2" ry="2" fill="rgb(104,76,65)" stroke="#1f1613" stroke-width="2" stroke-linecap="round" stroke-linejoin="round" stroke-dasharray="0 0"/><path d="M 0,30 L 150,30 M 0,120 L 150,120" fill="rgb(104,76,65)" stroke="#1f1613" stroke-width="2" stroke-linecap="round" stroke-linejoin="round" stroke-dasharray="0 0"/></g><g transform="translate(660, 405) rotate(0, 0, 0)" width="59" height="20"><text text-decoration="none" x="0" fill="#ffffff" font-size="11pt" font-family="lt_regular"  y="16">Branches</text><text text-decoration="none" x="59" fill="#4b4b4b" font-size="10pt" font-family="noto_regular"  y="16"></text></g><g transform="translate(660, 435) rotate(0, 0, 0)" width="102" height="80"><text text-decoration="none" x="0" fill="#ffffff" font-size="11pt" font-family="lt_regular"  y="16">-Name:&#160;</text><text text-decoration="none" x="52" fill="#ffffff" font-size="11pt" font-family="lt_regular"  y="16">string</text><text text-decoration="none" x="88" fill="#ffffff" font-size="11pt" font-family="lt_regular"  y="16"></text><text text-decoration="none" x="0" fill="#ffffff" font-size="11pt" font-family="lt_regular"  y="36">-PhoneNo:&#160;</text><text text-decoration="none" x="76" fill="#ffffff" font-size="11pt" font-family="lt_regular"  y="36">int</text><text text-decoration="none" x="93" fill="#ffffff" font-size="11pt" font-family="lt_regular"  y="36"></text><text text-decoration="none" x="0" fill="#ffffff" font-size="11pt" font-family="lt_regular"  y="56">-Address:&#160;</text><text text-decoration="none" x="65" fill="#ffffff" font-size="11pt" font-family="lt_regular"  y="56">string</text><text text-decoration="none" x="101" fill="#ffffff" font-size="11pt" font-family="lt_regular"  y="56"></text><text text-decoration="none" x="0" fill="#ffffff" font-size="11pt" font-family="lt_regular"  y="76">-Branchcode:int</text><text text-decoration="none" x="104" fill="#4b4b4b" font-size="10pt" font-family="noto_regular"  y="76"></text></g><g transform="translate(655, 525) rotate(0, 0, 0)" width="0" height="18"><text text-decoration="none" x="0" fill="#4b4b4b" font-size="10pt" font-family="noto_regular"  y="15"></text></g></g><g id="cLtb3tLtAeY"><mask id="ebc09" x="486" y="224" width="178" height="228" maskUnits="userSpaceOnUse"><rect x="486" y="224" width="178" height="228" fill="white" /><rect x="606.0006666444452" y="424.8000044442963" width="28" height="26" fill="black" /><rect x="515.9993333555548" y="224.8000044442963" width="28" height="26" fill="black" /></mask><g mask="url(#ebc09)"><path d="M 650,438 L 584.999777785185,437.56666518523457 Q 575,437.5 575,427.5 L 575,338 L 575,247.5 Q 575,237.5 565.000222214815,237.56666518523457 L 500,238" fill="none" stroke="#9A9A9A" stroke-width="2" stroke-linecap="round" stroke-linejoin="round"/></g><g transform="translate(609.0006666444452, 427.8000044442963)" width="22" height="20"><text text-decoration="none" x="0" fill="#4b4b4b" font-size="11pt" font-family="lt_regular"  y="16">1..*</text><text text-decoration="none" x="23" fill="#4b4b4b" font-size="10pt" font-family="noto_regular"  y="16"></text></g><g transform="translate(518.9993333555548, 227.8000044442963)" width="22" height="20"><text text-decoration="none" x="0" fill="#4b4b4b" font-size="11pt" font-family="lt_regular"  y="16">1..*</text><text text-decoration="none" x="23" fill="#4b4b4b" font-size="10pt" font-family="noto_regular"  y="16"></text></g></g><g id="Ehle8sBGiin"><mask id="b4273" x="711" y="236" width="28" height="178" maskUnits="userSpaceOnUse"><rect x="711" y="236" width="28" height="178" fill="white" /><rect x="711" y="357" width="28" height="26" fill="black" /><rect x="718" y="267" width="14" height="26" fill="black" /></mask><g mask="url(#b4273)"><path d="M 725,400 L 725,250" fill="none" stroke="#9A9A9A" stroke-width="2" stroke-linecap="round" stroke-linejoin="round"/></g><g transform="translate(714, 360)" width="22" height="20"><text text-decoration="none" x="0" fill="#4b4b4b" font-size="11pt" font-family="lt_regular"  y="16">1..*</text><text text-decoration="none" x="23" fill="#4b4b4b" font-size="10pt" font-family="noto_regular"  y="16"></text></g><g transform="translate(721, 270)" width="8" height="20"><text text-decoration="none" x="0" fill="#4b4b4b" font-size="11pt" font-family="lt_regular"  y="16">1</text><text text-decoration="none" x="9" fill="#4b4b4b" font-size="10pt" font-family="noto_regular"  y="16"></text></g></g><g id="J9fVqtzBh3C"><mask id="7d8a3" x="749" y="186" width="253" height="228" maskUnits="userSpaceOnUse"><rect x="749" y="186" width="253" height="228" fill="white" /><rect x="748.8500018749648" y="357.0003749929689" width="28" height="26" fill="black" /><rect x="980.8500018749648" y="216.9996250070311" width="14" height="26" fill="black" /></mask><g mask="url(#7d8a3)"><path d="M 763,400 L 762.5499993750117,309.9998750023437 Q 762.5,300 772.5,300 L 875,300 L 977.5,300 Q 987.5,300 987.5499993750117,290.0001249976563 L 988,200" fill="none" stroke="#9A9A9A" stroke-width="2" stroke-linecap="round" stroke-linejoin="round"/></g><g transform="translate(751.8500018749648, 360.0003749929689)" width="22" height="20"><text text-decoration="none" x="0" fill="#4b4b4b" font-size="11pt" font-family="lt_regular"  y="16">1..*</text><text text-decoration="none" x="23" fill="#4b4b4b" font-size="10pt" font-family="noto_regular"  y="16"></text></g><g transform="translate(983.8500018749648, 219.9996250070311)" width="8" height="20"><text text-decoration="none" x="0" fill="#4b4b4b" font-size="11pt" font-family="lt_regular"  y="16">1</text><text text-decoration="none" x="9" fill="#4b4b4b" font-size="10pt" font-family="noto_regular"  y="16"></text></g></g><g id="fqXbZXKe7FX"><g transform="translate(950 350)"><rect x="0" y="0" width="150" height="150" rx="2" ry="2" fill="rgb(104,76,65)" stroke="#1f1613" stroke-width="2" stroke-linecap="round" stroke-linejoin="round" stroke-dasharray="0 0"/><path d="M 0,30 L 150,30" fill="rgb(104,76,65)" stroke="#1f1613" stroke-width="2" stroke-linecap="round" stroke-linejoin="round" stroke-dasharray="0 0"/></g><g transform="translate(960, 355) rotate(0, 0, 0)" width="66" height="20"><text text-decoration="none" x="0" fill="#ffffff" font-size="11pt" font-family="lt_regular"  y="16">Transction</text><text text-decoration="none" x="68" fill="#4b4b4b" font-size="10pt" font-family="noto_regular"  y="16"></text></g><g transform="translate(960, 385) rotate(0, 0, 0)" width="112" height="100"><text text-decoration="none" x="0" fill="#ffffff" font-size="11pt" font-family="lt_regular"  y="16">-Type:string</text><text text-decoration="none" x="79" fill="#ffffff" font-size="11pt" font-family="lt_regular"  y="16"></text><text text-decoration="none" x="0" fill="#ffffff" font-size="11pt" font-family="lt_regular"  y="36">-time:string</text><text text-decoration="none" x="75" fill="#ffffff" font-size="11pt" font-family="lt_regular"  y="36"></text><text text-decoration="none" x="0" fill="#ffffff" font-size="11pt" font-family="lt_regular"  y="56">-date:string</text><text text-decoration="none" x="74" fill="#ffffff" font-size="11pt" font-family="lt_regular"  y="56"></text><text text-decoration="none" x="0" fill="#ffffff" font-size="11pt" font-family="lt_regular"  y="76">-</text><text text-decoration="none" x="6" fill="#ffffff" font-size="11pt" font-family="lt_regular"  y="76"></text><text text-decoration="none" x="0" fill="#ffffff" font-size="11pt" font-family="lt_regular"  y="96">+TransctionType()</text><text text-decoration="none" x="118" fill="#4b4b4b" font-size="10pt" font-family="noto_regular"  y="96"></text></g></g><g id="mwpX5EGy9Lj"><mask id="ddbb5" x="1011" y="186" width="28" height="178" maskUnits="userSpaceOnUse"><rect x="1011" y="186" width="28" height="178" fill="white" /><rect x="1011" y="307" width="28" height="26" fill="black" /><rect x="1011" y="217" width="28" height="26" fill="black" /></mask><g mask="url(#ddbb5)"><path d="M 1025,350 L 1025,200" fill="none" stroke="#9A9A9A" stroke-width="2" stroke-linecap="round" stroke-linejoin="round"/></g><g transform="translate(1014, 310)" width="22" height="20"><text text-decoration="none" x="0" fill="#4b4b4b" font-size="11pt" font-family="lt_regular"  y="16">1..*</text><text text-decoration="none" x="23" fill="#4b4b4b" font-size="10pt" font-family="noto_regular"  y="16"></text></g><g transform="translate(1014, 220)" width="22" height="20"><text text-decoration="none" x="0" fill="#4b4b4b" font-size="11pt" font-family="lt_regular"  y="16">1..*</text><text text-decoration="none" x="23" fill="#4b4b4b" font-size="10pt" font-family="noto_regular"  y="16"></text></g></g><g id="mpl7I6jEg7t"><g transform="translate(750 600)"><rect x="0" y="0" width="150" height="150" rx="2" ry="2" fill="rgb(251,174,55)" stroke="#8b5f1c" stroke-width="2" stroke-linecap="round" stroke-linejoin="round" stroke-dasharray="0 0"/><path d="M 0,30 L 150,30 M 0,80 L 150,80" fill="rgb(251,174,55)" stroke="#8b5f1c" stroke-width="2" stroke-linecap="round" stroke-linejoin="round" stroke-dasharray="0 0"/></g><g transform="translate(760, 605) rotate(0, 0, 0)" width="67" height="20"><text text-decoration="none" x="0" fill="#ffffff" font-size="11pt" font-family="lt_regular"  y="16">WithDraw</text><text text-decoration="none" x="68" fill="#4b4b4b" font-size="10pt" font-family="noto_regular"  y="16"></text></g><g transform="translate(760, 635) rotate(0, 0, 0)" width="102" height="40"><text text-decoration="none" x="0" fill="#ffffff" font-size="11pt" font-family="lt_regular"  y="16">-amount:double</text><text text-decoration="none" x="0" fill="#ffffff" font-size="11pt" font-family="lt_regular"  y="36"></text><text text-decoration="none" x="0" fill="#ffffff" font-size="11pt" font-family="lt_regular"  y="56">-accountn0:int</text><text text-decoration="none" x="95" fill="#4b4b4b" font-size="10pt" font-family="noto_regular"  y="56"></text></g><g transform="translate(760, 685) rotate(0, 0, 0)" width="83" height="20"><text text-decoration="none" x="0" fill="#ffffff" font-size="11pt" font-family="lt_regular"  y="16">+WithDraw()</text><text text-decoration="none" x="85" fill="#4b4b4b" font-size="10pt" font-family="noto_regular"  y="16"></text></g></g><g id="f3ER1UtyceD"><g transform="translate(950 600)"><rect x="0" y="0" width="150" height="150" rx="2" ry="2" fill="rgb(251,174,55)" stroke="#8b5f1c" stroke-width="2" stroke-linecap="round" stroke-linejoin="round" stroke-dasharray="0 0"/><path d="M 0,30 L 150,30 M 0,80 L 150,80" fill="rgb(251,174,55)" stroke="#8b5f1c" stroke-width="2" stroke-linecap="round" stroke-linejoin="round" stroke-dasharray="0 0"/></g><g transform="translate(960, 605) rotate(0, 0, 0)" width="50" height="20"><text text-decoration="none" x="0" fill="#ffffff" font-size="11pt" font-family="lt_regular"  y="16">Deposit</text><text text-decoration="none" x="51" fill="#4b4b4b" font-size="10pt" font-family="noto_regular"  y="16"></text></g><g transform="translate(960, 635) rotate(0, 0, 0)" width="102" height="40"><text text-decoration="none" x="0" fill="#ffffff" font-size="11pt" font-family="lt_regular"  y="16">-amount:double</text><text text-decoration="none" x="0" fill="#ffffff" font-size="11pt" font-family="lt_regular"  y="36"></text><text text-decoration="none" x="0" fill="#ffffff" font-size="11pt" font-family="lt_regular"  y="56">-accountno:int</text><text text-decoration="none" x="95" fill="#4b4b4b" font-size="10pt" font-family="noto_regular"  y="56"></text></g><g transform="translate(960, 685) rotate(0, 0, 0)" width="67" height="38"><text text-decoration="none" x="0" fill="#ffffff" font-size="11pt" font-family="lt_regular"  y="16">+Deposit()</text><text text-decoration="none" x="0" fill="#ffffff" font-size="11pt" font-family="lt_regular"  y="36"></text><text text-decoration="none" x="33.5" fill="#4b4b4b" font-size="10pt" font-family="noto_regular"  y="55"></text></g></g><g id="VeYFjxmzs2J"><g transform="translate(1150 600)"><rect x="0" y="0" width="164" height="150" rx="2" ry="2" fill="rgb(251,174,55)" stroke="#8b5f1c" stroke-width="2" stroke-linecap="round" stroke-linejoin="round" stroke-dasharray="0 0"/><path d="M 0,30 L 164,30 M 0,100 L 164,100" fill="rgb(251,174,55)" stroke="#8b5f1c" stroke-width="2" stroke-linecap="round" stroke-linejoin="round" stroke-dasharray="0 0"/></g><g transform="translate(1160, 605) rotate(0, 0, 0)" width="52" height="20"><text text-decoration="none" x="0" fill="#ffffff" font-size="11pt" font-family="lt_regular"  y="16">Transfer</text><text text-decoration="none" x="53" fill="#4b4b4b" font-size="10pt" font-family="noto_regular"  y="16"></text></g><g transform="translate(1160, 635) rotate(0, 0, 0)" width="144" height="60"><text text-decoration="none" x="0" fill="#ffffff" font-size="11pt" font-family="lt_regular"  y="16">-accountn0:int</text><text text-decoration="none" x="95" fill="#ffffff" font-size="11pt" font-family="lt_regular"  y="16"></text><text text-decoration="none" x="0" fill="#ffffff" font-size="11pt" font-family="lt_regular"  y="36">-amount:int</text><text text-decoration="none" x="76" fill="#ffffff" font-size="11pt" font-family="lt_regular"  y="36"></text><text text-decoration="none" x="0" fill="#ffffff" font-size="11pt" font-family="lt_regular"  y="56">-reciever_acountno:int</text><text text-decoration="none" x="148" fill="#4b4b4b" font-size="10pt" font-family="noto_regular"  y="56"></text></g><g transform="translate(1160, 705) rotate(0, 0, 0)" width="68" height="20"><text text-decoration="none" x="0" fill="#ffffff" font-size="11pt" font-family="lt_regular"  y="16">+Transfer()</text><text text-decoration="none" x="70" fill="#4b4b4b" font-size="10pt" font-family="noto_regular"  y="16"></text></g></g><g id="rwZDi0ALEev"><g><path d="M 1025,600 L 1025,500" fill="none" stroke="#7E7E7E" stroke-width="2" stroke-linecap="round" stroke-linejoin="round"/><path d="M 1025,500 L 1019.25,508.69565217391306 L 1030.75,508.69565217391306 Z" fill="rgb(126,126,126)" stroke="#7E7E7E" stroke-width="2" stroke-linecap="round" stroke-linejoin="round"/></g></g><g id="S8ahuCcezlg"><g><path d="M 825,600 L 825,560 Q 825,550 835,550 L 925,550 L 1015,550 Q 1025,550 1025,540 L 1025,500" fill="none" stroke="#7E7E7E" stroke-width="2" stroke-linecap="round" stroke-linejoin="round"/><path d="M 1025,500 L 1019.25,508.69565217391306 L 1030.75,508.69565217391306 Z" fill="rgb(126,126,126)" stroke="#7E7E7E" stroke-width="2" stroke-linecap="round" stroke-linejoin="round"/></g></g><g id="sdG6gkSNsNQ"><g><path d="M 1225,600 L 1225,560 Q 1225,550 1215,550 L 1125,550 L 1035,550 Q 1025,550 1025,540 L 1025,500" fill="none" stroke="#7E7E7E" stroke-width="2" stroke-linecap="round" stroke-linejoin="round"/><path d="M 1025,500 L 1019.25,508.69565217391306 L 1030.75,508.69565217391306 Z" fill="rgb(126,126,126)" stroke="#7E7E7E" stroke-width="2" stroke-linecap="round" stroke-linejoin="round"/></g></g></svg>